# xmcd
#
# Track frame offsets:
#	150
#	13125
#	28621
#	48188
#	66870
#	82910
#	96851
#	109685
#	125336
#	144904
#	163530
#	179633
#
# Disc length: 2580 seconds
#
# Revision: 1
# Processed by: cddbd v1.5.2PL0 Copyright (c) Steve Scherf et al.
# Submitted via: audiograbber 1.83.01
#
DISCID=960a120c
DTITLE=MIndy McCready  - CB20107
DYEAR=1900
DGENRE=Country
TTITLE0=A Girl's Gotta Do (What A Girl's Gotta Do) (Vocal)
TTITLE1=Guys Do It All The Time (Vocal)
TTITLE2=Let's Talk About Love (Vocal)
TTITLE3=Maybe He'll Notice Her Now (Vocal)
TTITLE4=Ten Thousand Angels (Vocal)
TTITLE5=The Other Side (Vocal)
TTITLE6=A Girl's Gotta Do (What A Girl's Gotta Do)
TTITLE7=Guys Do It All The Time
TTITLE8=Let's Talk About Love
TTITLE9=Maybe He'll Notice Her Now
TTITLE10=Ten Thousand Angels
TTITLE11=The Other Side
EXTD=
EXTT0=
EXTT1=
EXTT2=
EXTT3=
EXTT4=
EXTT5=
EXTT6=
EXTT7=
EXTT8=
EXTT9=
EXTT10=
EXTT11=
PLAYORDER=
